<svg id="Layer_1" enable-background="new 0 0 512 512" height="512" viewBox="0 0 512 512" width="512" xmlns="http://www.w3.org/2000/svg"><g><g><g><g><g><path d="m99.77 169.304h-41.099c-28.014 0-50.724-22.71-50.724-50.724v-35.696c0-11.866 4.16-23.357 11.757-32.473l20.55-24.66c9.637-11.564 23.913-18.251 38.967-18.251 15.054 0 29.33 6.687 38.967 18.251l20.55 24.66c7.597 9.116 11.757 20.607 11.757 32.473v35.696c-.001 28.014-22.71 50.724-50.725 50.724z" fill="#cff5ff"/><path d="m138.738 50.411-20.55-24.66c-9.637-11.564-23.913-18.251-38.967-18.251-5.144 0-10.191.799-15 2.288 9.263 2.869 17.623 8.35 23.967 15.963l20.55 24.66c7.596 9.116 11.757 20.607 11.757 32.473v35.696c0 28.014-22.71 50.724-50.724 50.724h30c28.014 0 50.724-22.71 50.724-50.724v-35.696c-.001-11.867-4.161-23.357-11.757-32.473z" fill="#b8f0ff"/><path d="m85.349 224.164h-12.257c-5.393 0-9.765-4.372-9.765-9.765v-86.243c0-5.075 4.114-9.188 9.188-9.188h13.41c5.075 0 9.188 4.114 9.188 9.188v86.243c.001 5.393-4.371 9.765-9.764 9.765z" fill="#36b8ff"/></g></g><path d="m95.706 233.48h-32.971c-6.596 0-11.942-5.347-11.942-11.942v-9.56c0-6.596 5.347-11.942 11.942-11.942h32.971c6.596 0 11.942 5.347 11.942 11.942v9.56c0 6.596-5.346 11.942-11.942 11.942z" fill="#0094e6"/></g><g><path d="m472.743 504.5h-100.636c-10.514 0-19.037-8.523-19.037-19.037v-270.963l69.378-31.5 69.333 31.5v270.963c-.001 10.514-8.524 19.037-19.038 19.037z" fill="#0094e6"/><path d="m461.78 214.5v270.963c0 10.514-8.523 19.037-19.037 19.037h30c10.514 0 19.037-8.523 19.037-19.037v-270.963z" fill="#0085cf"/><g><path d="m408.925 132.824v-104.824h27v46.815h23.125v24.324h-23.125v33.684c31.84 6.283 55.855 34.348 55.855 68.032v14.277h-138.711v-14.277c0-33.683 24.016-61.748 55.856-68.031z" fill="#81f0af"/><path d="m435.925 132.824v-33.685h23.125v-24.324h-23.125v-46.815h-27v104.824c-.504.099-1 .22-1.5.33 31.088 6.858 54.355 34.551 54.355 67.701v14.277h30v-14.277c0-33.683-24.015-61.748-55.855-68.031z" fill="#4fe88f"/><g fill="#0094e6"><path d="m396.425 42.5h52v-16.434c0-9.149-7.417-16.566-16.566-16.566h-18.867c-9.149 0-16.566 7.417-16.566 16.566v16.434z"/><path d="m458.332 61.385v52h16.434c9.149 0 16.566-7.417 16.566-16.566v-18.868c0-9.149-7.417-16.566-16.566-16.566z"/></g></g><g><path d="m274.995 211h45.285v120h-45.285z" fill="#cff5ff"/><path d="m295.28 211h25v120h-25z" fill="#b8f0ff"/><path d="m284.399 169h26.478v40h-26.478z" fill="#cff5ff"/><path d="m266.638 209h62v49h-62z" fill="#81f0af"/></g></g></g><g fill="#060606"><path d="m43.742 95.507h70.957c9.697 0 9.697-15 0-15h-70.957c-9.697 0-9.697 15 0 15z"/><path d="m97.977 68.752c9.697 0 9.697-15 0-15h-37.512c-9.697 0-9.697 15 0 15z"/><path d="m468.78 453v-122.198c0-4.142-3.357-7.5-7.5-7.5s-7.5 3.358-7.5 7.5v122.198c0 4.142 3.357 7.5 7.5 7.5s7.5-3.358 7.5-7.5z"/><path d="m504.28 250.5h-5v-35.367-.633-13.645c0-34.515-23.145-64.673-55.855-73.939v-20.276h7.407v6.745c0 4.142 3.357 7.5 7.5 7.5h16.434c13.271 0 24.066-10.796 24.066-24.066v-18.868c0-13.27-10.796-24.066-24.066-24.066h-16.434c-4.143 0-7.5 3.358-7.5 7.5v5.931h-7.407v-17.316h5c4.143 0 7.5-3.358 7.5-7.5v-16.434c0-13.27-10.796-24.066-24.067-24.066h-18.867c-13.271 0-24.066 10.796-24.066 24.066v16.434c0 4.142 3.357 7.5 7.5 7.5h5v31.5h-62.568c-27.061 0-49.076 22.016-49.076 49.076v30.924h-5.381c-4.143 0-7.5 3.358-7.5 7.5v32.5h-10.262c-4.143 0-7.5 3.358-7.5 7.5v18.5h-20.56c-19.646 0-35.631 15.984-35.631 35.631v179.869c0 29.5-24 53.5-53.5 53.5h-9c-29.5 0-53.5-24-53.5-53.5v-202.02h8.759c10.721 0 19.442-8.722 19.442-19.442v-9.56c0-8.285-5.219-15.357-12.534-18.151v-17.096c30.79-1.488 55.381-27.001 55.381-58.152v-35.695c0-25.84-18.693-43.511-34.045-61.934-11.096-13.314-27.399-20.95-44.73-20.95-13.236 0-26.203 4.571-36.512 12.871-7.553 6.081 1.851 17.762 9.406 11.685 7.653-6.162 17.28-9.556 27.106-9.556 12.866 0 24.969 5.669 33.206 15.553 12.68 15.216 30.568 31.055 30.568 52.331v35.696c0 22.878-17.869 41.65-40.381 43.12v-33.544c0-9.202-7.486-16.688-16.688-16.688h-13.41c-9.202 0-16.688 7.486-16.688 16.688v33.544c-22.512-1.471-40.38-20.243-40.38-43.12v-35.696c0-10.092 3.558-19.919 10.019-27.672 6.208-7.45-5.313-17.05-11.523-9.603-8.703 10.443-13.496 23.681-13.496 37.275v35.696c0 31.151 24.591 56.664 55.38 58.152v17.096c-7.315 2.794-12.534 9.866-12.534 18.151v9.56c0 10.721 8.722 19.442 19.442 19.442h9.212v202.019c0 37.771 30.729 68.5 68.5 68.5h9c37.771 0 68.5-30.729 68.5-68.5v-179.869c0-11.376 9.255-20.631 20.631-20.631h20.56v8h-5.857c-9.697 0-9.697 15 0 15h14.215v65.5c0 4.142 3.357 7.5 7.5 7.5h45.285c4.143 0 7.5-3.358 7.5-7.5v-65.5h17.789v219.963c0 14.633 11.904 26.537 26.537 26.537h29.333c9.697 0 9.697-15 0-15h-29.333c-6.361 0-11.537-5.175-11.537-11.537v-219.963h123.71v219.963c0 6.362-5.176 11.537-11.537 11.537h-31.341c-9.697 0-9.697 15 0 15h31.341c14.633 0 26.537-11.904 26.537-26.537v-219.963h5c9.697 0 9.697-15 0-15zm-431.765-124.033h13.41c.931 0 1.688.757 1.688 1.688v64.38h-16.786v-64.38c0-.93.758-1.688 1.688-1.688zm-14.222 95.071v-9.56c0-2.45 1.993-4.442 4.442-4.442h32.971c2.449 0 4.442 1.993 4.442 4.442v9.56c0 2.45-1.993 4.442-4.442 4.442h-32.971c-2.449 0-4.442-1.992-4.442-4.442zm407.539-152.653h8.934c4.999 0 9.066 4.067 9.066 9.066v18.867c0 4.999-4.067 9.066-9.066 9.066h-8.934v-6.744-24.325zm-61.907-42.819c0-4.999 4.067-9.066 9.066-9.066h18.867c4.999 0 9.066 4.067 9.066 9.066v8.934h-5-27-5v-8.934zm24.5 23.934v24.815c0 4.142 3.357 7.5 7.5 7.5h14.907v9.324h-14.907c-4.143 0-7.5 3.358-7.5 7.5v33.684c0 3.583 2.533 6.665 6.048 7.358 28.86 5.695 49.808 31.212 49.808 60.674v6.145h-123.712v-6.145c0-29.461 20.947-54.979 49.808-60.674 3.515-.693 6.048-3.775 6.048-7.358v-82.823zm-136.526 126.5h11.478v25h-11.478zm-17.762 40h10.262 26.478 10.261v34h-.857-45.285-.857v-34zm38.643 107h-30.285v-58h30.285zm23.357-73v-41.5c0-4.142-3.357-7.5-7.5-7.5h-10.261v-32.5c0-4.142-3.357-7.5-7.5-7.5h-6.097v-30.924c0-18.79 15.286-34.076 34.076-34.076h62.568v30.416c-32.711 9.267-55.855 39.425-55.855 73.939v13.645.633 35.367zm24.432 0v-27.867h123.711v27.867z"/></g></g></svg>